<svg width="40" height="40" viewBox="0 0 40 40" fill="none" xmlns="http://www.w3.org/2000/svg">
<g id="logo" clip-path="url(#clip0_190_922)">
<rect id="Rectangle 34625313" x="2.6665" y="9.25195" width="7.68" height="7.68" rx="3.84" transform="rotate(-9.17951 2.6665 9.25195)" fill="#DEC8FE"/>
<path id="Ellipse 2956" d="M34.7514 28.6703C36.0227 29.8979 36.0706 31.9484 34.6561 33.0078C32.6617 34.5016 30.398 35.6152 27.9776 36.2819C24.5244 37.2331 20.8792 37.2394 17.4227 36.3003C13.9662 35.3612 10.8254 33.5111 8.32829 30.9433C6.57807 29.1435 5.18913 27.0374 4.22484 24.7398C3.5409 23.1102 4.6198 21.366 6.33756 20.9504C8.05532 20.5348 9.75303 21.618 10.5576 23.1915C11.1727 24.3944 11.9663 25.5043 12.9165 26.4814C14.6145 28.2276 16.7503 29.4856 19.1007 30.1242C21.4511 30.7628 23.9299 30.7585 26.2781 30.1117C27.5921 29.7498 28.8382 29.1941 29.9775 28.4678C31.4677 27.5177 33.4801 27.4426 34.7514 28.6703Z" fill="#FFD25D"/>
<path id="O" d="M22.4283 22.0154L22.4323 22.0176C23.4832 22.6015 24.6506 22.8874 25.9172 22.8874C27.5595 22.8874 29.0667 22.4389 30.4186 21.5427C31.7856 20.6451 32.8457 19.3781 33.6071 17.7732C34.3865 16.1577 34.7648 14.3141 34.7648 12.2614C34.7648 10.7713 34.4749 9.4474 33.8602 8.31955C33.2553 7.19695 32.4209 6.32632 31.3565 5.7345C30.3167 5.14912 29.1545 4.86357 27.8889 4.86357C26.246 4.86357 24.7334 5.31236 23.3698 6.20722L23.3698 6.20721L23.3667 6.20925C22.0132 7.10681 20.9544 8.37284 20.1808 9.97536L20.1808 9.97535L20.1785 9.98022C19.4128 11.5951 19.0413 13.4378 19.0413 15.4896C19.0413 16.9809 19.3316 18.31 19.9449 19.4489L19.9449 19.449L19.9469 19.4526C20.5515 20.5611 21.3784 21.4239 22.4283 22.0154ZM28.2795 18.312L28.2795 18.312L28.2746 18.316C27.6548 18.8202 26.9442 19.0718 26.1105 19.0718C25.3229 19.0718 24.7102 18.7823 24.2122 18.1759C23.7217 17.5663 23.4175 16.6007 23.4175 15.161C23.4175 13.8331 23.6185 12.6799 24.0034 11.6885L24.0045 11.6857C24.3916 10.6769 24.9127 9.94338 25.5447 9.43993L25.5447 9.43996L25.5508 9.43498C26.1725 8.92921 26.8773 8.67919 27.6956 8.67919C28.4795 8.67919 29.0919 8.97197 29.592 9.59209L29.592 9.59211L29.5959 9.59683C30.0831 10.1912 30.3886 11.1473 30.3886 12.59C30.3886 13.9056 30.1938 15.0624 29.8187 16.0711C29.446 17.0605 28.9266 17.7944 28.2795 18.312Z" fill="#704FE6" stroke="#704FE6" stroke-width="1.53457"/>
</g>
<defs>
<clipPath id="clip0_190_922">
<rect width="40" height="40" fill="white"/>
</clipPath>
</defs>
</svg>
