<svg width="24" height="25" viewBox="0 0 24 25" fill="none" xmlns="http://www.w3.org/2000/svg">
<path d="M19.3171 13.2823C19.4622 13.2096 19.5843 13.0979 19.6696 12.9597C19.7549 12.8216 19.8 12.6624 19.8 12.5C19.8 12.3377 19.7549 12.1785 19.6696 12.0404C19.5843 11.9022 19.4622 11.7905 19.3171 11.7178L7.06656 5.59249C6.91467 5.51649 6.74394 5.48634 6.5752 5.50571C6.40646 5.52509 6.247 5.59315 6.11628 5.7016C5.98557 5.81005 5.88924 5.9542 5.83905 6.11647C5.78886 6.27873 5.78698 6.4521 5.83364 6.61541L7.08406 10.9906C7.13637 11.1735 7.24682 11.3343 7.39871 11.4488C7.5506 11.5632 7.73566 11.6251 7.92585 11.625L11.9256 11.625C12.1577 11.625 12.3803 11.7172 12.5444 11.8813C12.7085 12.0454 12.8007 12.268 12.8007 12.5C12.8007 12.7321 12.7085 12.9547 12.5444 13.1188C12.3803 13.2829 12.1577 13.3751 11.9256 13.3751L7.92585 13.3751C7.73566 13.375 7.5506 13.4368 7.39871 13.5513C7.24682 13.6658 7.13637 13.8266 7.08406 14.0095L5.83451 18.3847C5.78776 18.5479 5.78953 18.7213 5.8396 18.8835C5.88967 19.0458 5.98588 19.19 6.11649 19.2986C6.24711 19.4071 6.40648 19.4753 6.57518 19.4948C6.74388 19.5143 6.91462 19.4843 7.06656 19.4085L19.3171 13.2832L19.3171 13.2823Z" fill="white"/>
</svg>
